<?xml version="1.0" encoding="UTF-8" standalone="no"?>
<svg
   xmlns:dc="http://purl.org/dc/elements/1.1/"
   xmlns:cc="http://creativecommons.org/ns#"
   xmlns:rdf="http://www.w3.org/1999/02/22-rdf-syntax-ns#"
   xmlns:svg="http://www.w3.org/2000/svg"
   xmlns="http://www.w3.org/2000/svg"
   xmlns:sodipodi="http://sodipodi.sourceforge.net/DTD/sodipodi-0.dtd"
   xmlns:inkscape="http://www.inkscape.org/namespaces/inkscape"
   width="900"
   height="600"
   viewBox="-600 -400 1200 800"
   id="svg2"
   version="1.1"
   inkscape:version="0.91 r13725"
   sodipodi:docname="embassy_logo.svg"
   inkscape:export-filename="/Users/misha/Downloads/embassy_flag.png"
   inkscape:export-xdpi="300"
   inkscape:export-ydpi="300">
  <metadata
     id="metadata64">
    <rdf:RDF>
      <cc:Work
         rdf:about="">
        <dc:format>image/svg+xml</dc:format>
        <dc:type
           rdf:resource="http://purl.org/dc/dcmitype/StillImage" />
        <dc:title></dc:title>
      </cc:Work>
    </rdf:RDF>
  </metadata>
  <sodipodi:namedview
     pagecolor="#ffffff"
     bordercolor="#000000"
     borderopacity="1"
     objecttolerance="10"
     gridtolerance="10"
     guidetolerance="10"
     inkscape:pageopacity="0"
     inkscape:pageshadow="2"
     inkscape:window-width="1440"
     inkscape:window-height="851"
     id="namedview62"
     showgrid="false"
     inkscape:zoom="1.0811111"
     inkscape:cx="402.82632"
     inkscape:cy="336.99897"
     inkscape:window-x="0"
     inkscape:window-y="0"
     inkscape:window-maximized="1"
     inkscape:current-layer="layer3" />
  <defs
     id="defs4">
    <circle
       id="rb"
       r="145.663293"
       fill="none"
       stroke="#013ba6"
       stroke-width="39.030362" />
    <circle
       id="rw"
       r="145.663293"
       fill="none"
       stroke="#fff"
       stroke-width="17.346827" />
    <clipPath
       id="o">
      <path
         d="M0,-200V200H200V-200zM-200,-200V200H-100V-200z"
         id="path9" />
    </clipPath>
    <clipPath
       id="h">
      <path
         d="M-200,-200H200V50H-200z"
         id="path12" />
    </clipPath>
    <clipPath
       id="i1">
      <path
         d="M0,0 -200,-150V150z"
         id="path15" />
    </clipPath>
    <clipPath
       id="i2">
      <path
         d="M0,0 -200,-200V200z"
         id="path18" />
    </clipPath>
    <clipPath
       id="l1">
      <path
         d="M0,0 -50,-200H-200V150z"
         id="path21" />
    </clipPath>
    <clipPath
       id="l2">
      <path
         d="M0,0V-200H-200V200z"
         id="path24" />
    </clipPath>
  </defs>
  <g
     inkscape:groupmode="layer"
     id="layer3"
     inkscape:label="Logo"
     style="display:inline">
    <path
       style="display:inline;fill:#000000"
       d="M -88.600013,279.78438 C -149.49017,273.1043 -200.00265,232.62046 -219.25292,175.07095 c -8.46069,-25.29356 -10.22457,-53.59888 -4.95233,-79.470962 7.42552,-36.438799 27.69488,-68.976919 57.25156,-91.9050781 l 1.64636,-1.27712 0.276,5.0910799 c 0.15176,2.8001202 0.5372,7.5046002 0.85644,10.4544402 l 0.58048,5.363319 -6.32824,6.43668 c -7.1356,7.25784 -11.79876,12.9288 -16.64044,20.23668 -11.86632,17.910599 -19.01828,36.807919 -22.10232,58.400001 -1.01924,7.13596 -1.02377,28.04084 -0.008,35.12732 3.7662,26.26476 13.27969,48.54272 29.32577,68.67267 4.5012,5.64684 14.7004,15.84604 20.34724,20.34724 20.84008,16.61212 44.37284,26.47728 70.799999,29.68004 7.59148,0.92004 22.75656,0.92368 30.399999,0.007 7.27864,-0.87264 16.2106,-2.66736 23.1272,-4.64708 l 5.52724,-1.582 3.13156,2.38388 c 1.72236,1.31112 5.60652,4.00812 8.631479,5.99332 l 5.49988,3.60944 -2.15868,0.95444 c -3.95756,1.74976 -14.085959,5.08556 -20.320879,6.69272 -7.41716,1.91188 -15.37852,3.32872 -23.32644,4.15128 -7.230639,0.74832 -24.064519,0.74496 -30.911359,-0.006 z m 145.799997,-0.0128 c -41.750919,-4.50536 -78.973198,-24.78792 -104.914238,-57.16812 -13.431999,-16.76616 -23.516839,-36.91879 -28.926119,-57.80331 -0.76928,-2.97 -1.56356,-5.76 -1.76512,-6.2 -0.67524,-1.47424 -2.35996,-11.54076 -2.39124,-14.28828 0,-0.1586 1.912,0.7254 4.25292,1.96436 2.34096,1.239 6.59176,3.28856 9.44628,4.55456 2.85448,1.266 5.32368,2.45204 5.487,2.6356 0.16336,0.18356 0.78692,2.40376 1.38572,4.93376 4.138479,17.48612 12.539239,35.18696 23.824679,50.19999 22.586639,30.04712 55.962439,49.05024 94.200118,53.63456 7.643439,0.9164 22.808519,0.91276 30.399999,-0.007 26.060597,-3.15836 48.612677,-12.48712 69.796877,-28.87188 5.71,-4.41632 16.70104,-15.30368 21.35692,-21.1554 16.11532,-20.25459 25.4016,-42.03971 29.32716,-68.79999 1.02792,-7.0074 1.01884,-27.47744 -0.0156,-34.8 -3.56528,-25.241442 -12.9314,-47.475842 -28.36396,-67.333841 -1.81584,-2.33656 -6.32276,-7.33656 -10.01536,-11.11108 l -6.7138,-6.86272 0.43784,-3.600719 c 0.24076,-1.98036 0.65196,-6.67204 0.91376,-10.4259202 l 0.476,-6.8252399 4,3.18416 c 8.67268,6.9038801 18.95836,17.4268391 25.78068,26.3753591 17.14292,22.48556 27.42352,47.686399 31.0856,76.200001 1.09976,8.56328 1.01044,28.10092 -0.16824,36.8 -5.97044,44.063 -28.19944,81.45383 -63.42716,106.68923 -21.86496,15.663 -47.19732,25.22496 -74.470877,28.10984 -6.98572,0.73892 -24.03712,0.72372 -30.999999,-0.0276 z m -34.8,-37.92284 c -4.537959,-2.04284 -10.711759,-5.16516 -11.731519,-5.93308 -0.6746802,-0.50808 -0.426,-0.80216 3.2,-3.7844 22.671639,-18.6466 38.831359,-44.04723 45.889399,-72.13111 0.801719,-3.19 1.589159,-6.0312 1.749879,-6.3138 0.16072,-0.2826 2.27224,-1.37472 4.69224,-2.42688 2.42,-1.0522 6.55472,-3.01624 9.18828,-4.3646 2.63356,-1.34832 4.86096,-2.3788 4.9498,-2.29 0.66652,0.66656 -2.215,18.10428 -3.33132,20.15948 -0.3094,0.56968 -1.1276,2.9258 -1.81816,5.2358 -6.73556,22.53128 -17.640279,41.88375 -33.903439,60.16795 -4.70052,5.28468 -13.4582,13.43984 -14.40252,13.41168 -0.37544,-0.0112 -2.39264,-0.79016 -4.48264,-1.73104 z M -155.80001,154.15139 c -12.88188,-1.02588 -25.71604,-3.50072 -37.26088,-7.18512 -5.102,-1.62824 -4.57304,-0.8528 -5.29752,-7.76612 -0.67708,-6.46096 -0.93932,-12.8 -0.52956,-12.8 0.20872,0 2.29804,0.72064 4.64292,1.60144 15.90816,5.97536 31.5066,8.79584 48.64504,8.79584 14.02108,0 25.45,-1.64236 39.24908,-5.64016 l 4.24912,-1.23104 3.816597,2.8312 c 2.09912,1.55716 6.02468,4.26584 8.72344,6.01928 4.56004,2.96276 4.83812,3.21472 3.93428,3.56496 -0.53488,0.20732 -1.96252,0.77676 -3.17252,1.26548 -11.304077,4.56576 -25.660477,8.15332 -39.199997,9.79588 -5.15532,0.6254 -23.23316,1.11204 -27.8,0.74836 z m 146.3999952,0.0116 c -0.8800002,-0.0868 -3.6700002,-0.3528 -6.2000002,-0.59108 -37.941879,-3.57312 -74.424198,-22.35636 -100.166755,-51.57176 -21.11576,-23.964442 -33.65728,-52.172401 -37.70284,-84.8 -1.0034,-8.0925202 -0.99484,-26.6537798 0.016,-34.6 3.87212,-30.439515 14.59468,-56.050842 33.34452,-79.64471 4.45388,-5.60458 17.44336,-18.5832 23.109117,-23.08979 l 4.4,-3.49981 0.27036,1.71716 c 0.14868,0.94443 0.28244,2.79715 0.2972,4.11715 0.0148,1.32 0.32104,5.28 0.6806,8.8 l 0.65368,6.4 -3.59952,3.400002 c -21.500757,20.308884 -35.866197,47.353447 -40.688077,76.599999 -1.35652,8.227871 -1.81152,13.9042832 -1.81152,22.599999 0,8.7005998 0.45488,14.3704 1.81496,22.623079 5.9454,36.0756 25.92332,67.866119 56.162037,89.369641 19.040239,13.54004 42.884519,22.25476 66.689118,24.37384 6.1412001,0.54672 18.1247999,0.5564 24.13116,0.0196 62.281358,-5.5668 112.609835,-52.094162 122.986155,-113.697481 1.49816,-8.894519 1.9544,-16.0245992 1.69092,-26.4258109 -0.25252,-9.9681401 -0.82768,-15.1626641 -2.68644,-24.2628271 -5.46028,-26.732588 -19.63928,-52.235859 -39.477797,-71.007443 l -3.81248,-3.607448 0.6526,-6.39255 c 0.35892,-3.51591 0.66172,-7.56256 0.67288,-8.99256 0.0112,-1.43 0.14488,-3.2851 0.2972,-4.12245 l 0.27696,-1.52245 4.4,3.49844 c 5.648677,4.49124 18.641637,17.48008 23.109117,23.10175 18.74992,23.593988 29.4762,49.214603 33.34392,79.64471 0.89124,7.012048 1.01188,26.0113198 0.20952,33 -3.81412,33.221679 -16.5462,62.239118 -37.91008,86.4 -25.581157,28.93032 -59.566636,46.72832 -98.152475,51.4018 -5.08492,0.61592 -23.2748799,1.1286 -26.9999998,0.76104 z M 133.59998,153.97703 c -16.31848,-1.43136 -33.44444,-5.54752 -47.355677,-11.38172 l -1.55568,-0.65244 4.89,-3.17712 c 2.68948,-1.7474 6.60744,-4.45116 8.70656,-6.00832 l 3.816597,-2.8312 4.24912,1.22216 c 9.43124,2.71264 18.52728,4.46148 27.24908,5.23896 5.86552,0.52288 18.10844,0.5294 23.8,0.0128 12.9868,-1.17908 26.95072,-4.4202 38.1104,-8.84572 1.60072,-0.6348 3.10308,-1.15416 3.33852,-1.15416 0.45348,0 0.26036,4.98752 -0.48784,12.6 -0.69856,7.10744 -0.1834,6.33316 -5.3002,7.96612 -9.46364,3.0202 -17.82488,4.86936 -28.26088,6.25012 -7.15788,0.94704 -24.308,1.36516 -31.2,0.76064 z M -242.44446,120.24499 C -271.52629,96.922348 -291.62572,62.829988 -297.77153,26.399989 -299.50524,16.12323 -299.7959,12.33267 -299.7959,-1e-5 c 0,-12.402908 0.30996,-16.449768 2.02209,-26.399999 6.32676,-36.768763 25.61982,-69.575067 55.07471,-93.650141 l 4.49909,-3.67736 0.3073,4.36375 c 0.16901,2.40006 0.578,7.10893 0.90888,10.46414 l 0.60158,6.10039 -5.52011,5.499614 c -21.57662,21.496488 -34.69714,47.495451 -39.31245,77.899606 -1.09555,7.217108 -1.51582,23.6198399 -0.80576,31.44792 2.5777,28.417959 13.48766,54.555798 31.9472,76.538318 1.66903,1.98756 5.43347,5.9878 8.36543,8.8894 l 5.33081,5.275602 -0.60414,6.1244 c -0.33228,3.3684 -0.74243,8.07036 -0.91144,10.4488 l -0.3073,4.32444 -4.24445,-3.40388 z m 480.44092,2.28224 c -0.007,-2.2066 -0.79484,-12.38704 -1.23916,-16.0096 l -0.45168,-3.6824 5.35696,-5.317602 c 16.00748,-15.88996 27.10104,-33.74988 34.10776,-54.911359 4.5032,-13.60036 6.62108,-27.228799 6.62108,-42.6062789999999 C 282.39142,-21.763189 277.98778,-40.997769 268.60898,-60.200008 247.59022,-103.234 205.61602,-132.03932 157.59998,-136.38131 c -5.87964,-0.53168 -18.06828,-0.53468 -24,-0.006 -12.20896,1.08836 -25.78564,4.21808 -36.726117,8.46616 -2.26936,0.88118 -4.18744,1.5389 -4.26236,1.4616 -0.07492,-0.0773 -0.35024,-3.74055 -0.6118,-8.14055 -0.26156,-4.4 -0.50352,-8.45 -0.53764,-9 -0.05868,-0.94545 0.27612,-1.11274 6.13792,-3.06688 16.109557,-5.37043 30.059677,-7.53909 48.399997,-7.52418 11.1588,0.009 15.69356,0.34361 24.8,1.82954 48.96724,7.99015 91.55672,39.69088 113.55656,84.523824 7.754,15.801739 12.64864,32.635063 14.84028,51.037694 0.7292,6.123072 0.96836,21.5178399 0.43824,28.2106 -2.80836,35.456159 -16.99096,67.945638 -40.87424,93.634602 -5.6746,6.10368 -14.66892,14.27716 -19.46084,17.68479 l -1.3,0.92448 -0.004,-1.12724 z M -61.400013,110.27051 c -4.90836,-2.79664 -8.85176,-5.25552 -9.88164,-6.1616 -0.63596,-0.55948 -0.5782,-0.8054 0.86144,-3.66872 2.63248,-5.235802 7.04984,-12.582082 14.816239,-24.640202 11.72592,-18.205719 16.29528,-26.248719 20.17976,-35.520439 6.54508,-15.62204 9.31,-33.0629592 7.02164,-44.2920869 -2.4424,-11.9851281 -6.6278,-19.8087391 -23.71104,-44.3221031 -16.548759,-23.746439 -22.906439,-35.964507 -26.888599,-51.674059 -2.162,-8.52908 -2.38688,-10.87112 -2.38024,-24.79131 0.0068,-14.31714 0.46156,-19.66933 2.60004,-30.6 9.34264,-47.7548 40.041799,-87.96395 83.3823979,-109.21261 15.6951591,-7.69487 30.3611991,-12.10758 49.2599591,-14.8213 6.979759,-1.00223 26.006999,-1.21676 34.140039,-0.38491 31.042557,3.17506 59.701277,15.20315 83.870877,35.20068 5.55,4.59199 14.95528,13.99726 19.54728,19.54728 17.44016,21.0787 28.96852,46.10574 33.58008,72.8995 1.51628,8.8097 2.14512,8.3176 -5.69824,4.45912 -3.685,-1.8128 -7.96104,-3.84478 -9.50232,-4.5155 l -2.80232,-1.21951 -0.93344,-4.17637 c -1.18104,-5.28434 -4.99484,-16.84079 -7.45052,-22.57638 -14.0316,-32.77274 -40.66712,-58.95966 -73.83868,-72.59509 -35.765677,-14.70175 -75.983516,-13.5462 -111.021435,3.18991 -31.285,14.9435 -55.505239,40.98308 -68.276599,73.40518 -4.10956,10.43288 -6.878319,21.09326 -8.537319,32.87088 -0.98868,7.01865 -0.99264,25.46236 -0.0068,31.92912 2.32592,15.25893 8.279079,27.85763 23.538039,49.81391 17.83372,25.661131 22.500159,33.702579 26.470679,45.615722 2.53992,7.6206642 3.2596802,12.3121961 3.2172402,20.9703679 -0.08332,17.0046791 -4.3617602,33.4567991 -13.3779992,51.4429591 -3.40704,6.796639 -8.23692,14.904479 -16.7706,28.152599 -8.37232,12.9976 -12.31136,19.547082 -14.85792,24.704442 -0.95052,1.925 -1.82308,3.49496 -1.93908,3.48876 -0.11596,-0.006 -2.19084,-1.13936 -4.610839,-2.51824 z M 54.588904,109.89999 C 52.132464,105.11163 48.994584,99.900188 42.606864,89.999988 32.229424,73.916268 27.783984,66.210588 23.303224,56.539189 14.864225,38.324229 9.8869848,16.80111 9.8585048,-1.60001 c -0.0096,-6.1927438 0.13256,-8.0483638 0.8712402,-11.374224 2.20084,-9.909299 6.93948,-20.793319 13.551079,-31.125087 1.93552,-3.024624 7.32468,-10.860744 11.97588,-17.413603 10.18508,-14.34928 13.53316,-19.443764 17.27568,-26.287084 4.66176,-8.524084 7.384639,-15.634672 9.343639,-24.400002 0.80232,-3.58992 0.89512,-5.10721 0.90544,-14.8 0.0124,-11.81224 -0.44748,-16.62768 -2.57736,-26.97993 -3.631719,-17.65211 -12.067719,-36.99793 -22.485719,-51.56543 -6.60816,-9.24019 -16.32968,-19.67717 -24.610879,-26.4221 -2.25088,-1.83329 -3.99156,-3.49657 -3.8682,-3.69616 0.274,-0.44332 10.131999,-5.37049 13.868559,-6.93169 2.44412,-1.02119 2.80892,-1.07737 3.74452,-0.57664 1.81404,0.97085 13.4716,12.78158 17.82664,18.0609 19.395199,23.51137 30.923959,50.06272 34.697879,79.91105 1.15552,9.13892 1.76712,23.4398 1.21908,28.50419 -1.42504,13.16842 -5.73228,25.818564 -13.3798,39.295812 -3.75552,6.618408 -8.12012,13.218388 -16.727039,25.294043 -8.51716,11.949724 -11.36104,16.152812 -14.23456,21.03764 -4.7124,8.010844 -7.4576,14.658399 -8.87276,21.4856472 -0.75008,3.6188039 -0.836,4.9915239 -0.63712,10.18266779 0.60856,15.88672001 4.78968,33.15991901 11.66236,48.18007901 4.07452,8.9048 8.22968,16.079879 18.65892,32.219919 6.914759,10.70116 9.599199,15.15628 11.952239,19.836282 l 1.59532,3.17296 -3.30676,2.12436 c -4.19092,2.6924 -11.221599,6.6664 -11.793959,6.6664 -0.23996,0 -1.10572,-1.305 -1.92392,-2.9 z M -167.00001,-3.7224139 c -29.86536,-23.4386351 -49.77498,-55.4155791 -57.20524,-91.8775941 -2.57271,-12.624882 -3.62142,-29.265962 -2.63421,-41.800002 2.56308,-32.54211 14.73509,-62.66891 35.42129,-87.67086 4.592,-5.55002 13.99728,-14.95529 19.54728,-19.54728 24.156,-19.98627 52.8458,-32.02741 83.870877,-35.20068 5.25216,-0.53719 8.96892,-0.63093 18.2,-0.45903 14.853199,0.2766 22.978839,1.36367 36.399999,4.86969 5.48848,1.43376 15.702319,4.84502 19.394399,6.47741 l 2.19436,0.97022 -1.39436,0.86106 c -3.52,2.17368 -10.079159,6.61589 -12.903359,8.73887 l -3.109,2.33703 -4.85272,-1.39677 c -40.042479,-11.52543 -80.919556,-5.20524 -115.329316,17.83157 -7.41064,4.96131 -13.16328,9.73912 -20.20648,16.7823 -8.92808,8.92808 -15.29628,17.12999 -21.54356,27.74701 -9.81526,16.68057 -16.25747,36.99928 -18.06888,56.98906 -0.6885,7.59798 -0.28744,23.85805 0.76144,30.8704 3.69283,24.688766 12.95988,46.365602 28.20748,65.980985 1.78752,2.29954 6.27088,7.276412 9.96308,11.059716 l 6.71308,6.878736 -0.43708,3.594807 c -0.2404,1.977144 -0.65128,6.660264 -0.91308,10.4069282 l -0.476,6.8121199 -1.6,-1.255696 z m 332.03059,-3.7996759 c -0.1514,-2.7928562 -0.53776,-7.5032402 -0.85864,-10.4675162 l -0.58336,-5.389595 5.95368,-6.010404 c 6.5256,-6.587764 10.42316,-11.155864 14.8722,-17.430828 11.87032,-16.741955 20.50352,-37.651915 23.404,-56.685447 0.97344,-6.38812 0.5936,-6.11188 4.7868,-3.48122 3.92356,2.4615 8.9588,6.0127 10.93224,7.71016 l 1.252,1.076932 -0.96272,4.468604 c -5.26012,24.416168 -16.37428,47.094755 -32.8012,66.931395 -5.9128,7.140151 -16.5332,17.3487072 -23.87268,22.9469591 l -1.84708,1.408884 -0.27524,-5.0779239 z M -2.5260149,-49.583453 c -2.85036,-0.914532 -3.5332399,-1.922076 -15.5241201,-22.904239 -10.903199,-19.07894 -11.721999,-20.646724 -11.856879,-22.703248 -0.24944,-3.803424 0.39092,-4.59704 13.306999,-16.49186 6.38,-5.87553 12.2300001,-11.00365 13.0000001,-11.39583 0.8402,-0.42793 2.2796799,-0.71304 3.5999999,-0.71304 1.32032,0 2.7597999,0.28511 3.5999999,0.71304 0.77,0.39218 6.6200001,5.5203 13.0000001,11.39583 12.919039,11.897524 13.556519,12.6878 13.306679,16.496056 -0.13536,2.063488 -0.9424,3.605792 -11.925919,22.790612 -13.1451601,22.960531 -12.9326801,22.676375 -17.20256002,23.005871 -1.19799997,0.09245 -2.68491998,0.0055 -3.30419988,-0.193192 z m 8.2405198,-34.411759 c 3.0170399,-5.277364 5.4854801,-9.765552 5.4854801,-9.973756 0,-0.400904 -10.76956001,-10.431042 -11.2,-10.431042 -0.43043999,0 -11.2,10.030138 -11.2,10.431042 0,0.508856 10.90876001,19.56896 11.2,19.56896 0.126,0 2.6975199,-4.317844 5.7145199,-9.595204 z M -199.01201,-130.90001 c 0.26236,-4.62311 0.87916,-11.10038 1.27552,-13.39519 0.21436,-1.24115 0.38192,-1.34587 4.01604,-2.50998 9.30544,-2.98079 20.2932,-5.38071 30.52044,-6.66617 7.77392,-0.9771 26.85624,-0.97351 34.79244,0.007 12.8508,1.58697 24.20344,4.20533 34.407557,7.93572 2.2906,0.8374 2.59196,1.06823 2.53232,1.93979 -0.0372,0.54411 -0.28168,4.58929 -0.54324,8.98929 -0.2616,4.4 -0.53436,8.06325 -0.6062,8.14055 -0.07184,0.0773 -1.9874,-0.58042 -4.25676,-1.46159 -11.394197,-4.42428 -24.596637,-7.42222 -37.463277,-8.507 -7.10984,-0.59942 -22.43532,-0.26864 -28.84052,0.62249 -10.8618,1.51115 -20.5754,3.93235 -30.503,7.60316 -2.681,0.99131 -5.0348,1.80239 -5.23064,1.80239 -0.20216,0 -0.24572,-1.94522 -0.10068,-4.5 z m 145.590156,2 c 0.11024,-1.375 0.29708,-4.3 0.41516,-6.5 0.11808,-2.2 0.41116,-5.3784 0.65132,-7.06312 l 0.4366,-3.06312 4.4594,-1.42761 c 9.70616,-3.10729 19.16936,-5.14391 30.259359,-6.51223 4.33676,-0.53508 8.6760002,-0.71562 17.2,-0.71562 11.8004,0 17.27936,0.44106 27.477879,2.21199 8.7724,1.5233 24.5136,5.95816 24.53004,6.91101 0.0044,0.25228 0.19176,1.7187 0.41648,3.2587 0.41752,2.86151 1.17444,15.08557 0.94996,15.34155 -0.06824,0.0778 -2.6844,-0.78969 -5.8136,-1.92785 -9.97356,-3.62759 -19.38996,-5.95978 -29.960759,-7.42048 -6.44376,-0.89042 -21.7599599,-1.22009 -28.86284,-0.62126 -12.992719,1.09541 -27.777759,4.49969 -38.475039,8.85895 -1.57416,0.64149 -3.09212,1.16697 -3.37324,1.16772 -0.3818,0.001 -0.46044,-0.63126 -0.31072,-2.49863 z"
       id="path8245"
       inkscape:connector-curvature="0" />
  </g>
</svg>
